<?xml version="1.0" encoding="UTF-8" standalone="no"?>
<!-- Created with Inkscape (http://www.inkscape.org/) -->

<svg
   width="512"
   height="512"
   viewBox="0 0 135.46667 135.46666"
   version="1.1"
   id="svg5"
   inkscape:version="1.2.1 (9c6d41e410, 2022-07-14)"
   sodipodi:docname="libtmux.svg"
   xmlns:inkscape="http://www.inkscape.org/namespaces/inkscape"
   xmlns:sodipodi="http://sodipodi.sourceforge.net/DTD/sodipodi-0.dtd"
   xmlns="http://www.w3.org/2000/svg"
   xmlns:svg="http://www.w3.org/2000/svg"
   xmlns:rdf="http://www.w3.org/1999/02/22-rdf-syntax-ns#"
   xmlns:cc="http://creativecommons.org/ns#"
   xmlns:dc="http://purl.org/dc/elements/1.1/">
  <title
     id="title595">libtmux</title>
  <sodipodi:namedview
     id="namedview7"
     pagecolor="#505050"
     bordercolor="#000000"
     borderopacity="1"
     inkscape:pageshadow="0"
     inkscape:pageopacity="0"
     inkscape:pagecheckerboard="true"
     inkscape:document-units="mm"
     showgrid="false"
     inkscape:showpageshadow="false"
     showborder="true"
     borderlayer="true"
     showguides="false"
     inkscape:guide-bbox="true"
     inkscape:zoom="1.8973437"
     inkscape:cx="373.94385"
     inkscape:cy="266.16158"
     inkscape:window-width="3840"
     inkscape:window-height="1577"
     inkscape:window-x="-8"
     inkscape:window-y="-8"
     inkscape:window-maximized="1"
     inkscape:current-layer="layer2"
     inkscape:snap-global="false"
     inkscape:snap-page="true"
     inkscape:deskcolor="#505050" />
  <defs
     id="defs2">
    <style
       id="style12147">.cls-1{fill:#8db1d1;}.cls-2{fill:#3771a2;}.cls-3{fill:#ffcd23;}.cls-4{fill:#231f20;}.cls-5{fill:#fff;fill-rule:evenodd;opacity:0.23;}</style>
  </defs>
  <g
     inkscape:groupmode="layer"
     id="layer2"
     inkscape:label="libtmux"
     style="display:inline"
     transform="translate(-210.28959,-409.98108)">
    <g
       id="Blue-Square-group-object-Shape"
       inkscape:label="Blue-Square-group-object-Shape"
       transform="matrix(1.024,0,0,1.0240011,-5.0469507,-9.8399997)">
      <title
         id="title966">Blue Square Group object (Shape)</title>
      <path
         id="Blue-Square-shadow-object-Shape"
         style="fill:#224665;fill-opacity:1;stroke-width:5.79024"
         class="cls-2"
         inkscape:label="Blue-Square-shadow-object-Shape"
         d="M 227.78906,0 213.98242,3.6992188 V 460.62109 H 241.4082 V 15.564453 Z"
         transform="matrix(0.26458333,0,0,0.26458333,210.28959,409.98108)">
        <title
           id="title1425">Blue Square shadow object (Shape)</title>
      </path>
      <path
         class="cls-2"
         d="m 210.28981,417.13553 v 113.86425 l 60.26885,2.60089 V 409.98109 h -53.11441 c -3.95129,0 -7.15444,3.20315 -7.15444,7.15444 z"
         id="Blue-Square-object-Shape"
         sodipodi:nodetypes="cccccc"
         style="stroke-width:1.532"
         inkscape:label="Blue-Square-object-Shape">
        <title
           id="title1187">Blue Square object (Shape)</title>
      </path>
    </g>
    <g
       id="Yellow-Square-group-object-Shape"
       inkscape:label="Yellow-Square-group-object-Shape"
       transform="matrix(1.024,0,0,1.0240011,-5.0469507,-9.8399997)">
      <title
         id="title962">Yellow Square Group object (Shape)</title>
      <path
         id="Yellow-Square-Shadow-object-Shape"
         style="fill:#b18900;fill-opacity:1;stroke-width:5.79024"
         class="cls-3"
         d="m 486.38086,246.03906 -5.24805,4.99805 v 207.2207 l 5.24805,-0.93164 L 500,465.18945 V 261.60352 Z"
         transform="matrix(0.26458333,0,0,0.26458333,210.28959,409.98108)"
         inkscape:label="Yellow-Square-Shadow-object-Shape">
        <title
           id="title2365">Yellow Square Shadow object (Shape)</title>
      </path>
      <path
         id="Yellow-Square-object-Shape"
         style="stroke-width:1.532"
         class="cls-3"
         d="m 278.70874,475.07917 v 64.8875 l 60.26883,-8.98455 v -55.90295 z"
         inkscape:label="Yellow-Square-object-Shape"
         sodipodi:nodetypes="ccccc">
        <title
           id="title1990">Yellow Square object (Shape)</title>
      </path>
    </g>
    <path
       id="Bottom-bar-object-Shape"
       style="stroke-width:1.56876"
       class="cls-4"
       d="m 210.28959,533.88585 v 4.23589 c 9e-5,4.04619 3.2803,7.32617 7.32649,7.32598 h 28.63105 l 81.26967,-1.0223 14.5495,-10.53906 v 0 z"
       inkscape:label="Bottom-bar-object-Shape"
       sodipodi:nodetypes="cccccccc">
      <title
         id="title1566">Bottom bar object (Shape)</title>
    </path>
    <g
       id="Light-Blue-Square-group-object-Shape"
       inkscape:label="Light-Blue-Square-group-object-Shape"
       transform="matrix(1.024,0,0,1.0240011,-5.0469507,-9.8399997)">
      <title
         id="title964">Light Blue Square Group object (Shape)</title>
      <path
         id="Light-Blue-Square-Shadow-1-object-Shape"
         style="fill:#5d90bd;fill-opacity:1;stroke-width:5.79024"
         class="cls-1"
         inkscape:label="Light-Blue-Square-Shadow-1-object-Shape"
         d="m 459.33984,0 -25.33593,2.1074219 h 21.38281 c 14.93397,0 27.04101,12.1070061 27.04101,27.0410161 V 129.83008 l 6.17579,13.24609 L 500,112.43359 V 42.603516 C 499.99913,8.8176763 474.27408,-6.8031496e-4 459.33984,0 Z"
         transform="matrix(0.26458333,0,0,0.26458333,210.28959,409.98108)">
        <title
           id="title1364">Light Blue Square Shadow 1 object (Shape)</title>
      </path>
      <path
         class="cls-1"
         d="m 331.82331,409.98109 h -53.11442 v 56.93261 h 60.26885 v -49.77817 c 0,-3.95129 -3.20315,-7.15444 -7.15443,-7.15444 z"
         id="Light-Blue-Square-object-Shape"
         style="stroke-width:1.532"
         sodipodi:nodetypes="scccss"
         inkscape:label="Light-Blue-Square-object-Shape">
        <title
           id="title1067">Light Blue Square object (Shape)</title>
      </path>
      <path
         style="fill:#457baa;fill-opacity:1;stroke:none;stroke-width:0.48638;stroke-linecap:round;stroke-linejoin:round;paint-order:stroke fill markers;stop-color:#000000"
         d="m 278.7089,466.9137 h 60.26885 l 3.6035,4.11782 h -60.26932 z"
         id="Light-Blue-Square-Shadow-2-object-Shape"
         inkscape:label="Light-Blue-Square-Shadow-2-object-Shape">
        <title
           id="title1385">Light Blue Square Shadow 2 object (Shape)</title>
      </path>
    </g>
    <g
       id="Gear-object-Group"
       inkscape:label="Gear-object-Group"
       transform="matrix(1.024,0,0,1.0240011,-5.0469507,-9.8399997)">
      <title
         id="title2298">Gear object (Group)</title>
      <path
         id="Gear-Shadow-object-Shape"
         style="fill:#999999;fill-opacity:1;fill-rule:nonzero;stroke:none;stroke-width:0.406467"
         d="m 298.35661,419.37889 c -3.307,0 -6.01087,2.63649 -6.0946,5.94228 l -0.33026,13.04677 c -0.0503,1.98883 -1.3048,3.74588 -3.16843,4.44175 -1.63527,0.6105 -3.23561,1.29298 -4.79768,2.04293 -1.82786,0.87796 -4.00547,0.54134 -5.47527,-0.85609 l -9.17457,-8.72115 c -2.39692,-2.27863 -6.17361,-2.23122 -8.512,0.10759 l -14.3945,14.39447 c -1.27625,1.27604 -1.86544,2.98029 -1.77147,4.65491 -0.0118,0.22021 -0.0123,0.44029 0,0.66053 -0.0118,0.22023 -0.0123,0.44029 0,0.66053 -0.0118,0.22021 -0.0123,0.44029 0,0.66053 -0.0118,0.22024 -0.0123,0.44029 0,0.66053 -0.0118,0.22024 -0.0123,0.44029 0,0.66053 -0.0118,0.22024 -0.0123,0.44029 0,0.66053 -0.0118,0.22024 -0.0123,0.44029 0,0.66053 -0.0838,1.61437 0.46467,3.25669 1.6634,4.51768 l 8.99461,9.46208 c 0.23074,0.24278 0.42181,0.51038 0.59418,0.78721 -0.60023,1.35769 -1.15279,2.74067 -1.64984,4.15071 -0.6727,1.90958 -2.45019,3.20822 -4.47443,3.25942 l -12.65165,0.31971 c -3.30618,0.0837 -5.94279,2.7886 -5.94279,6.0956 v 0.66053 0.66053 0.66053 0.66056 2.64112 15.07361 0.66053 0.66053 0.66053 0.66053 0.66053 0.66053 0.66053 0.66053 c 0,3.30703 2.63661,6.01136 5.94279,6.09511 l 13.04677,0.32975 c 1.98885,0.0503 3.74539,1.30529 4.44124,3.16895 0.53531,1.43379 1.12957,2.83886 1.7725,4.21655 -0.17026,0.27145 -0.35881,0.53398 -0.58564,0.77264 l -8.72163,9.17405 c -1.19922,1.26148 -1.74723,2.90475 -1.66291,4.51969 -0.0124,0.22024 -0.0118,0.44029 0,0.66053 v 0.0457 h 0.0875 l 10.03868,-9.51839 29.63949,8.95286 h 43.47603 l 13.935,-16.69426 v -0.0216 c -8.04912,9.72841 -20.24315,15.90068 -33.88319,15.7844 -22.83086,-0.19494 -41.62302,-18.24181 -43.0251,-40.7806 1.34121,-22.94291 20.4588,-41.11551 43.78415,-40.91631 13.2902,0.11325 25.20451,6.28323 33.12414,15.86034 v -3.90741 -20.27843 -11.02398 l -3.97024,3.7742 c -1.44419,1.37264 -3.57681,1.72648 -5.38882,0.89729 -1.57465,-0.72024 -3.18724,-1.3729 -4.83384,-1.95295 -1.90955,-0.67268 -3.2077,-2.45012 -3.25892,-4.47392 l -0.32023,-12.65265 c -0.0836,-3.30579 -2.78757,-5.94228 -6.09457,-5.94228 z"
         inkscape:label="Gear-Shadow-object-Shape">
        <title
           id="title2321">Gear Shadow object (Shape)</title>
      </path>
      <path
         id="Gear-object-Shape"
         style="fill:#e6e6e6;fill-opacity:1;fill-rule:nonzero;stroke:none;stroke-width:0.406467"
         d="m 298.35715,419.3789 c -3.30703,0 -6.01139,2.63697 -6.09511,5.94277 l -0.33075,13.04677 c -0.0504,1.98885 -1.30431,3.74539 -3.16795,4.44126 -1.63521,0.6105 -3.23553,1.29298 -4.79716,2.04293 -1.8283,0.87755 -4.0065,0.54134 -5.47627,-0.85609 l -9.17408,-8.72115 c -2.39692,-2.27863 -6.17372,-2.23122 -8.51252,0.10759 l -14.39447,14.39498 c -2.33842,2.33839 -2.38624,6.1146 -0.10759,8.51152 l 8.9951,9.46211 c 1.37305,1.44416 1.72558,3.57678 0.89681,5.38881 -0.72068,1.57466 -1.37293,3.18676 -1.95295,4.83335 -0.67271,1.90958 -2.45022,3.20823 -4.47444,3.25942 l -12.65164,0.32023 c -3.30621,0.0837 -5.9428,2.78759 -5.9428,6.09459 v 20.35786 c 0,3.30703 2.63659,6.01087 5.9428,6.09459 l 13.04677,0.33027 c 1.98843,0.0504 3.74578,1.30479 4.44123,3.16846 0.61094,1.63521 1.29301,3.2356 2.04295,4.79765 0.87797,1.82789 0.54145,4.00591 -0.85559,5.47527 l -8.72164,9.17457 c -1.37514,1.44653 -1.88755,3.39384 -1.57592,5.22595 h 0.7465 24.32055 61.26465 3.60327 c 3.95126,0 7.15424,-3.20297 7.15424,-7.15427 v -2.056 -8.04952 c -8.05257,9.71866 -20.25002,15.87899 -33.88271,15.76278 -23.61284,-0.2016 -42.90943,-19.4986 -43.11104,-43.11106 -0.20729,-24.31847 19.55063,-44.07731 43.86912,-43.8696 13.28515,0.11319 25.2041,6.27146 33.12463,15.84172 v -18.88347 -11.02398 l -3.97073,3.77469 c -1.44417,1.37264 -3.57578,1.72599 -5.38782,0.8968 -1.57506,-0.72024 -3.18776,-1.37292 -4.83435,-1.95295 -1.90958,-0.67309 -3.20729,-2.45063 -3.25892,-4.47441 l -0.32023,-12.65167 c -0.0833,-3.3058 -2.78767,-5.94277 -6.09509,-5.94277 z"
         inkscape:label="Gear-object-Shape">
        <title
           id="title2319">Gear object (Shape)</title>
      </path>
    </g>
  </g>
  <metadata
     id="metadata593">
    <rdf:RDF>
      <cc:Work
         rdf:about="">
        <dc:title>libtmux</dc:title>
      </cc:Work>
    </rdf:RDF>
  </metadata>
</svg>
