<?xml version="1.0" encoding="UTF-8" standalone="no"?>
<svg
   viewBox="0 0 84 84"
   version="1.1"
   id="svg12165"
   sodipodi:docname="libtmux - filled.svg"
   inkscape:version="1.1.2 (0a00cf5339, 2022-02-04, custom)"
   xmlns:inkscape="http://www.inkscape.org/namespaces/inkscape"
   xmlns:sodipodi="http://sodipodi.sourceforge.net/DTD/sodipodi-0.dtd"
   xmlns="http://www.w3.org/2000/svg"
   xmlns:svg="http://www.w3.org/2000/svg"
   xmlns:rdf="http://www.w3.org/1999/02/22-rdf-syntax-ns#"
   xmlns:cc="http://creativecommons.org/ns#"
   xmlns:dc="http://purl.org/dc/elements/1.1/">
  <sodipodi:namedview
     id="namedview12167"
     pagecolor="#ffffff"
     bordercolor="#666666"
     borderopacity="1.0"
     inkscape:pageshadow="2"
     inkscape:pageopacity="0.0"
     inkscape:pagecheckerboard="true"
     showgrid="false"
     inkscape:zoom="10.392857"
     inkscape:cx="42"
     inkscape:cy="41.95189"
     inkscape:window-width="3840"
     inkscape:window-height="1577"
     inkscape:window-x="-8"
     inkscape:window-y="-8"
     inkscape:window-maximized="1"
     inkscape:current-layer="svg12165" />
  <defs
     id="defs12149">
    <style
       id="style12147">.cls-1{fill:#8db1d1;}.cls-2{fill:#3771a2;}.cls-3{fill:#ffcd23;}.cls-4{fill:#231f20;}.cls-5{fill:#fff;fill-rule:evenodd;opacity:0.23;}</style>
  </defs>
  <title
     id="title12151">libtmux</title>
  <rect
     style="fill:#ffffff;fill-rule:evenodd"
     id="rect12217"
     width="51.958763"
     height="79.766319"
     x="32.041237"
     y="0.096219935"
     rx="8.7088299"
     ry="4.6321101" />
  <g
     id="Layer_2"
     data-name="Layer 2">
    <g
       id="Layer_1-2"
       data-name="Layer 1">
      <path
         class="cls-1"
         d="M79.33,0H44.66V34.81H84V4.67A4.67,4.67,0,0,0,79.33,0Z"
         id="path12153" />
      <path
         class="cls-2"
         d="M0,4.67V79.33A4.67,4.67,0,0,0,4.67,84H39.34V0H4.67A4.67,4.67,0,0,0,0,4.67Z"
         id="path12155" />
      <path
         class="cls-3"
         d="M44.66,84H79.33A4.67,4.67,0,0,0,84,79.33V40.14H44.66Z"
         id="path12157" />
      <path
         class="cls-4"
         d="M4.67,84H79.33A4.67,4.67,0,0,0,84,79.33v-2.7H0v2.7A4.67,4.67,0,0,0,4.67,84Z"
         id="path12159" />
      <path
         class="cls-5"
         d="M80.19,54.06A24.32,24.32,0,0,1,44.66,75.65V84H68.12q1.35-.56,2.6-1.21L72.29,84h7A4.67,4.67,0,0,0,84,79.33V40.14H75.8A24.19,24.19,0,0,1,80.19,54.06Zm3-33c-.92-.86-2.08-2.27-3.29-2.3s-1.7.8-2.5,1.4c-2.42,1.82-4.58,3.42-6.89,5-1.49-.84-3.28-1.37-4.89-2.09-.3-1.91-.56-3.49-.9-5.69-.24-1.54-.15-4.38-1.1-5.49s-4.45-.7-7-.7a68.25,68.25,0,0,0-7,0c-2.43.29-2.43,3.64-2.8,6-.34,2.16-.52,4-.8,6-.48.14-.94.3-1.39.47v8.82a24.31,24.31,0,0,1,26.06,2.33H84v-13ZM32,18.79c-1.17,0-2.74,1.41-3.5,2.1a67.11,67.11,0,0,0-5.59,5.79c-.81.91-2.32,2.19-2.3,3.4,0,.9.92,1.68,1.5,2.39a64.28,64.28,0,0,1,5,6.69,37.07,37.07,0,0,0-2.2,5c-1.59.25-3.5.61-5.49.9-1.8.26-4.34.19-5.49,1s-.8,4.94-.8,7.39c0,2-.5,6.22.2,7.69.51,1.07,2,1.1,3.29,1.3,3,.44,5.36.73,8.29,1.2a27.13,27.13,0,0,0,2.3,5.49C26,70.71,25.06,72,23.89,73.5c-.91,1.18-3.06,2.86-3,4.69,0,1.22,1.46,2.5,2.2,3.29.89,1,1.65,1.76,2.4,2.51H39.34V71.9a24.31,24.31,0,0,1,0-35.67V24c-1.63-1.28-3.1-2.47-4.86-3.82C33.8,19.68,32.88,18.8,32,18.79Z"
         id="path12161" />
    </g>
  </g>
  <metadata
     id="metadata12219">
    <rdf:RDF>
      <cc:Work
         rdf:about="">
        <dc:title>libtmux</dc:title>
      </cc:Work>
    </rdf:RDF>
  </metadata>
</svg>
