<svg xmlns="http://www.w3.org/2000/svg" viewBox="0 0 84 84"><defs><style>.cls-1{fill:#8db1d1;}.cls-2{fill:#3771a2;}.cls-3{fill:#ffcd23;}.cls-4{fill:#231f20;}.cls-5{fill:#fff;fill-rule:evenodd;opacity:0.23;}</style></defs><title>libtmux</title><g id="Layer_2" data-name="Layer 2"><g id="Layer_1-2" data-name="Layer 1"><path class="cls-1" d="M79.33,0H44.66V34.81H84V4.67A4.67,4.67,0,0,0,79.33,0Z"/><path class="cls-2" d="M0,4.67V79.33A4.67,4.67,0,0,0,4.67,84H39.34V0H4.67A4.67,4.67,0,0,0,0,4.67Z"/><path class="cls-3" d="M44.66,84H79.33A4.67,4.67,0,0,0,84,79.33V40.14H44.66Z"/><path class="cls-4" d="M4.67,84H79.33A4.67,4.67,0,0,0,84,79.33v-2.7H0v2.7A4.67,4.67,0,0,0,4.67,84Z"/><path class="cls-5" d="M80.19,54.06A24.32,24.32,0,0,1,44.66,75.65V84H68.12q1.35-.56,2.6-1.21L72.29,84h7A4.67,4.67,0,0,0,84,79.33V40.14H75.8A24.19,24.19,0,0,1,80.19,54.06Zm3-33c-.92-.86-2.08-2.27-3.29-2.3s-1.7.8-2.5,1.4c-2.42,1.82-4.58,3.42-6.89,5-1.49-.84-3.28-1.37-4.89-2.09-.3-1.91-.56-3.49-.9-5.69-.24-1.54-.15-4.38-1.1-5.49s-4.45-.7-7-.7a68.25,68.25,0,0,0-7,0c-2.43.29-2.43,3.64-2.8,6-.34,2.16-.52,4-.8,6-.48.14-.94.3-1.39.47v8.82a24.31,24.31,0,0,1,26.06,2.33H84v-13ZM32,18.79c-1.17,0-2.74,1.41-3.5,2.1a67.11,67.11,0,0,0-5.59,5.79c-.81.91-2.32,2.19-2.3,3.4,0,.9.92,1.68,1.5,2.39a64.28,64.28,0,0,1,5,6.69,37.07,37.07,0,0,0-2.2,5c-1.59.25-3.5.61-5.49.9-1.8.26-4.34.19-5.49,1s-.8,4.94-.8,7.39c0,2-.5,6.22.2,7.69.51,1.07,2,1.1,3.29,1.3,3,.44,5.36.73,8.29,1.2a27.13,27.13,0,0,0,2.3,5.49C26,70.71,25.06,72,23.89,73.5c-.91,1.18-3.06,2.86-3,4.69,0,1.22,1.46,2.5,2.2,3.29.89,1,1.65,1.76,2.4,2.51H39.34V71.9a24.31,24.31,0,0,1,0-35.67V24c-1.63-1.28-3.1-2.47-4.86-3.82C33.8,19.68,32.88,18.8,32,18.79Z"/></g></g></svg>